<?xml version="1.0" encoding="iso-8859-1"?>
<!-- Generator: Adobe Illustrator 19.0.0, SVG Export Plug-In . SVG Version: 6.00 Build 0)  -->
<svg version="1.1" id="Layer_1" xmlns="http://www.w3.org/2000/svg" xmlns:xlink="http://www.w3.org/1999/xlink" x="0px" y="0px"
	 viewBox="0 0 512 512" style="enable-background:new 0 0 512 512;" xml:space="preserve">
<path style="fill:#EFF2FA;" d="M476.69,476.69H35.31c-9.751,0-17.655-7.904-17.655-17.655V141.241h476.69v317.793
	C494.345,468.785,486.44,476.69,476.69,476.69z"/>
<rect x="17.655" y="141.241" style="fill:#D7DEED;" width="476.69" height="35.31"/>
<path style="fill:#FF6464;" d="M494.345,70.621H17.655C7.905,70.621,0,78.525,0,88.276v52.966c0,9.75,7.905,17.655,17.655,17.655
	h476.69c9.75,0,17.655-7.905,17.655-17.655V88.276C512,78.525,504.095,70.621,494.345,70.621z M70.621,123.586
	c-9.75,0-17.655-7.905-17.655-17.655c0-9.751,7.905-17.655,17.655-17.655s17.655,7.904,17.655,17.655
	C88.276,115.681,80.371,123.586,70.621,123.586z M441.379,123.586c-9.75,0-17.655-7.905-17.655-17.655
	c0-9.751,7.905-17.655,17.655-17.655s17.655,7.904,17.655,17.655C459.034,115.681,451.129,123.586,441.379,123.586z"/>
<g>
	<path style="fill:#D7DEED;" d="M132.414,273.655H61.793c-4.875,0-8.828-3.953-8.828-8.828v-35.31c0-4.875,3.953-8.828,8.828-8.828
		h70.621c4.875,0,8.828,3.953,8.828,8.828v35.31C141.241,269.703,137.289,273.655,132.414,273.655z"/>
	<path style="fill:#D7DEED;" d="M132.414,414.897H61.793c-4.875,0-8.828-3.953-8.828-8.828v-35.31c0-4.875,3.953-8.828,8.828-8.828
		h70.621c4.875,0,8.828,3.953,8.828,8.828v35.31C141.241,410.944,137.289,414.897,132.414,414.897z"/>
	<path style="fill:#D7DEED;" d="M132.414,344.276H61.793c-4.875,0-8.828-3.953-8.828-8.828v-35.31c0-4.875,3.953-8.828,8.828-8.828
		h70.621c4.875,0,8.828,3.953,8.828,8.828v35.31C141.241,340.323,137.289,344.276,132.414,344.276z"/>
	<path style="fill:#D7DEED;" d="M238.345,273.655h-70.621c-4.875,0-8.828-3.953-8.828-8.828v-35.31c0-4.875,3.953-8.828,8.828-8.828
		h70.621c4.875,0,8.828,3.953,8.828,8.828v35.31C247.172,269.703,243.22,273.655,238.345,273.655z"/>
	<path style="fill:#D7DEED;" d="M238.345,414.897h-70.621c-4.875,0-8.828-3.953-8.828-8.828v-35.31c0-4.875,3.953-8.828,8.828-8.828
		h70.621c4.875,0,8.828,3.953,8.828,8.828v35.31C247.172,410.944,243.22,414.897,238.345,414.897z"/>
	<path style="fill:#D7DEED;" d="M238.345,344.276h-70.621c-4.875,0-8.828-3.953-8.828-8.828v-35.31c0-4.875,3.953-8.828,8.828-8.828
		h70.621c4.875,0,8.828,3.953,8.828,8.828v35.31C247.172,340.323,243.22,344.276,238.345,344.276z"/>
	<path style="fill:#D7DEED;" d="M344.276,273.655h-70.621c-4.875,0-8.828-3.953-8.828-8.828v-35.31c0-4.875,3.953-8.828,8.828-8.828
		h70.621c4.875,0,8.828,3.953,8.828,8.828v35.31C353.103,269.703,349.151,273.655,344.276,273.655z"/>
	<path style="fill:#D7DEED;" d="M344.276,414.897h-70.621c-4.875,0-8.828-3.953-8.828-8.828v-35.31c0-4.875,3.953-8.828,8.828-8.828
		h70.621c4.875,0,8.828,3.953,8.828,8.828v35.31C353.103,410.944,349.151,414.897,344.276,414.897z"/>
	<path style="fill:#D7DEED;" d="M344.276,344.276h-70.621c-4.875,0-8.828-3.953-8.828-8.828v-35.31c0-4.875,3.953-8.828,8.828-8.828
		h70.621c4.875,0,8.828,3.953,8.828,8.828v35.31C353.103,340.323,349.151,344.276,344.276,344.276z"/>
	<path style="fill:#D7DEED;" d="M450.207,273.655h-70.621c-4.875,0-8.828-3.953-8.828-8.828v-35.31c0-4.875,3.953-8.828,8.828-8.828
		h70.621c4.875,0,8.828,3.953,8.828,8.828v35.31C459.034,269.703,455.082,273.655,450.207,273.655z"/>
	<path style="fill:#D7DEED;" d="M450.207,414.897h-70.621c-4.875,0-8.828-3.953-8.828-8.828v-35.31c0-4.875,3.953-8.828,8.828-8.828
		h70.621c4.875,0,8.828,3.953,8.828,8.828v35.31C459.034,410.944,455.082,414.897,450.207,414.897z"/>
	<path style="fill:#D7DEED;" d="M450.207,344.276h-70.621c-4.875,0-8.828-3.953-8.828-8.828v-35.31c0-4.875,3.953-8.828,8.828-8.828
		h70.621c4.875,0,8.828,3.953,8.828,8.828v35.31C459.034,340.323,455.082,344.276,450.207,344.276z"/>
</g>
<path style="fill:#FF6464;" d="M233.93,411.24c-7.073,0-13.725-2.755-18.727-7.757l-86.447-86.446
	c-6.895-6.895-6.895-18.073,0-24.968c6.894-6.895,18.073-6.895,24.968,0l80.206,80.205l139.793-139.791
	c6.894-6.894,18.073-6.894,24.968,0c6.895,6.895,6.895,18.073,0,24.969L252.657,403.482
	C247.656,408.486,241.005,411.24,233.93,411.24z"/>
<g>
	<path style="fill:#C7CFE2;" d="M70.621,105.931L70.621,105.931c-4.875,0-8.828-3.953-8.828-8.828V44.138
		c0-4.875,3.953-8.828,8.828-8.828l0,0c4.875,0,8.828,3.953,8.828,8.828v52.966C79.448,101.978,75.496,105.931,70.621,105.931z"/>
	<path style="fill:#C7CFE2;" d="M441.379,105.931L441.379,105.931c-4.875,0-8.828-3.953-8.828-8.828V44.138
		c0-4.875,3.953-8.828,8.828-8.828l0,0c4.875,0,8.828,3.953,8.828,8.828v52.966C450.207,101.978,446.254,105.931,441.379,105.931z"
		/>
</g>
<g>
</g>
<g>
</g>
<g>
</g>
<g>
</g>
<g>
</g>
<g>
</g>
<g>
</g>
<g>
</g>
<g>
</g>
<g>
</g>
<g>
</g>
<g>
</g>
<g>
</g>
<g>
</g>
<g>
</g>
</svg>
