<?xml version="1.0" encoding="iso-8859-1"?>
<!-- Generator: Adobe Illustrator 19.0.0, SVG Export Plug-In . SVG Version: 6.00 Build 0)  -->
<svg version="1.1" id="Layer_1" xmlns="http://www.w3.org/2000/svg" xmlns:xlink="http://www.w3.org/1999/xlink" x="0px" y="0px"
	 viewBox="0 0 512 512" style="enable-background:new 0 0 512 512;" xml:space="preserve">
<path style="fill:#D7DEED;" d="M370.759,512H141.241c-14.626,0-26.483-11.857-26.483-26.483V26.483
	C114.759,11.857,126.615,0,141.241,0h229.517c14.626,0,26.483,11.857,26.483,26.483v459.034
	C397.241,500.143,385.385,512,370.759,512z"/>
<path style="fill:#FFFFFF;" d="M370.759,459.034H141.241c-4.875,0-8.828-3.953-8.828-8.828V61.793c0-4.875,3.953-8.828,8.828-8.828
	h229.517c4.875,0,8.828,3.953,8.828,8.828v388.414C379.586,455.082,375.634,459.034,370.759,459.034z"/>
<path style="fill:#707487;" d="M194.25,35.31c-4.879,0-8.871-3.953-8.871-8.828s3.905-8.828,8.785-8.828h0.086
	c4.879,0,8.828,3.953,8.828,8.828S199.129,35.31,194.25,35.31z"/>
<path style="fill:#464655;" d="M167.724,35.31c-4.879,0-8.871-3.953-8.871-8.828s3.905-8.828,8.785-8.828h0.086
	c4.879,0,8.828,3.953,8.828,8.828S172.604,35.31,167.724,35.31z"/>
<path style="fill:#707487;" d="M282.483,35.31h-52.966c-4.875,0-8.828-3.953-8.828-8.828l0,0c0-4.875,3.953-8.828,8.828-8.828
	h52.966c4.875,0,8.828,3.953,8.828,8.828l0,0C291.31,31.358,287.358,35.31,282.483,35.31z"/>
<path style="fill:#AFB9D2;" d="M264.828,503.172h-17.655c-9.751,0-17.655-7.904-17.655-17.655l0,0
	c0-9.751,7.904-17.655,17.655-17.655h17.655c9.751,0,17.655,7.904,17.655,17.655l0,0
	C282.483,495.267,274.579,503.172,264.828,503.172z"/>
<path style="fill:#FFC36E;" d="M282.483,423.724H176.552c-4.875,0-8.828-3.953-8.828-8.828v-70.621c0-4.875,3.953-8.828,8.828-8.828
	h105.931c4.875,0,8.828,3.953,8.828,8.828v70.621C291.31,419.772,287.358,423.724,282.483,423.724z"/>
<path style="fill:#FFB464;" d="M176.552,423.724h105.931c4.875,0,8.828-3.953,8.828-8.828l-50.303-43.117
	c-6.612-5.667-16.367-5.667-22.979,0l-50.304,43.117C167.724,419.772,171.677,423.724,176.552,423.724z"/>
<path style="fill:#FFD782;" d="M282.483,335.448H176.552c-4.875,0-8.828,3.953-8.828,8.828l50.303,43.117
	c6.612,5.667,16.367,5.667,22.979,0l50.304-43.117C291.31,339.401,287.358,335.448,282.483,335.448z"/>
<path style="fill:#EFF2FA;" d="M176.552,203.034h158.897c4.875,0,8.828,3.953,8.828,8.828v70.621c0,4.875-3.953,8.828-8.828,8.828
	H220.69L197.85,314.15c-4.602,4.602-12.471,1.343-12.471-5.165V291.31h-8.828c-4.875,0-8.828-3.953-8.828-8.828v-70.621
	C167.724,206.987,171.677,203.034,176.552,203.034z"/>
<path style="fill:#C3E678;" d="M335.448,176.552H176.552c-4.875,0-8.828-3.953-8.828-8.828V97.103c0-4.875,3.953-8.828,8.828-8.828
	h158.897c4.875,0,8.828,3.953,8.828,8.828v70.621C344.276,172.599,340.323,176.552,335.448,176.552z"/>
<g>
	<path style="fill:#FFFFFF;" d="M317.793,123.586H194.207c-4.875,0-8.828-3.953-8.828-8.828l0,0c0-4.875,3.953-8.828,8.828-8.828
		h123.586c4.875,0,8.828,3.953,8.828,8.828l0,0C326.621,119.634,322.668,123.586,317.793,123.586z"/>
	<path style="fill:#FFFFFF;" d="M317.793,158.897H194.207c-4.875,0-8.828-3.953-8.828-8.828l0,0c0-4.875,3.953-8.828,8.828-8.828
		h123.586c4.875,0,8.828,3.953,8.828,8.828l0,0C326.621,154.944,322.668,158.897,317.793,158.897z"/>
</g>
<g>
	<path style="fill:#D7DEED;" d="M317.793,238.345H194.207c-4.875,0-8.828-3.953-8.828-8.828l0,0c0-4.875,3.953-8.828,8.828-8.828
		h123.586c4.875,0,8.828,3.953,8.828,8.828l0,0C326.621,234.392,322.668,238.345,317.793,238.345z"/>
	<path style="fill:#D7DEED;" d="M317.793,273.655H194.207c-4.875,0-8.828-3.953-8.828-8.828l0,0c0-4.875,3.953-8.828,8.828-8.828
		h123.586c4.875,0,8.828,3.953,8.828,8.828l0,0C326.621,269.703,322.668,273.655,317.793,273.655z"/>
</g>
<g>
</g>
<g>
</g>
<g>
</g>
<g>
</g>
<g>
</g>
<g>
</g>
<g>
</g>
<g>
</g>
<g>
</g>
<g>
</g>
<g>
</g>
<g>
</g>
<g>
</g>
<g>
</g>
<g>
</g>
</svg>
